PathFileType	4	(X/Y/Z)	./resultDataOpenSim/trcMotMarkerGrf/sub10/qtm-02-08.trc
DataRate	CameraRate	NumFrames	NumMarkers	Units	OrigDataRate	OrigDataStartFrame	OrigNumFrames
250.000000	250.000000	8	24	m	250.000000	178	473
Frame#	Time	L.Toe.Tip			R.Toe.Tip			L.Ankle.Lat			R.Ankle.Lat			L.Ankle.Med			R.Ankle.Med			L.Heel			R.Heel			L.Knee.Lat			R.Knee.Lat			L.Knee.Med			R.Knee.Med			L.Thigh.Upper			R.Thigh.Upper			L.ASIS			R.ASIS			V.Sacral			L.Acromium			R.Acromium			C7			L.Elbow			R.Elbow			L.Wrist.Lat			R.Wrist.Lat
		X1	Y1	Z1	X2	Y2	Z2	X3	Y3	Z3	X4	Y4	Z4	X5	Y5	Z5	X6	Y6	Z6	X7	Y7	Z7	X8	Y8	Z8	X9	Y9	Z9	X10	Y10	Z10	X11	Y11	Z11	X12	Y12	Z12	X13	Y13	Z13	X14	Y14	Z14	X15	Y15	Z15	X16	Y16	Z16	X17	Y17	Z17	X18	Y18	Z18	X19	Y19	Z19	X20	Y20	Z20	X21	Y21	Z21	X22	Y22	Z22	X23	Y23	Z23	X24	Y24	Z24

178	0.708	0.017903462	0.022991775	-0.12380478	-0.73795972	0.0391199	0.07128355	-0.11557108	0.043796425	-0.15522511	-0.83562858	0.13319517	0.11294942	-0.11563613	0.062123902	-0.072202708	-0.80731473	0.13909113	0.027650338	-0.17990927	0.0097939188	-0.11447132	-0.89359106	0.1400814	0.069123975	-0.1402403	0.43440893	-0.16413562	-0.54982158	0.41063308	0.12232016	-0.13445458	0.406952	-0.043974673	-0.52124319	0.4005233	-0.0035651195	-0.28082973	0.790107	-0.20189809	-0.42855709	0.7938659	0.16448275	-0.25752796	0.88910413	-0.11120361	-0.3221475	0.87400614	0.12675137	-0.4874494	0.89604937	-0.057254245	-0.35823659	1.3436627	-0.16723559	-0.36817333	1.3548497	0.15739337	-0.44936918	1.3779473	-0.015064236	-0.5195279	1.0442455	-0.22456842	-0.36604611	0.99758172	0.2184828	-0.46690843	0.81030964	-0.24526595	-0.15642877	0.87494075	0.15711901
179	0.712	0.018933078	0.022086074	-0.12443592	-0.73687361	0.038948091	0.070999783	-0.11493503	0.04395442	-0.15510796	-0.8303409	0.13743871	0.11260931	-0.11483993	0.062306542	-0.072190852	-0.80082593	0.14181196	0.027808568	-0.17943381	0.010201684	-0.11441215	-0.8872907	0.14576506	0.067944701	-0.13265661	0.43520736	-0.16414581	-0.54040944	0.41021098	0.12189946	-0.1281893	0.40820775	-0.04396035	-0.51228154	0.39991116	-0.0035137486	-0.27383021	0.79135664	-0.2031198	-0.42018288	0.79311386	0.16387772	-0.25078043	0.88996505	-0.11232242	-0.31344937	0.87363548	0.1249429	-0.48092968	0.89634038	-0.057874973	-0.35171544	1.3439544	-0.1682633	-0.3614683	1.3553338	0.15642674	-0.44256311	1.3781929	-0.016039549	-0.51199545	1.0442967	-0.22527391	-0.36063852	0.99788638	0.21688731	-0.46110095	0.81020116	-0.24620343	-0.15072154	0.8755029	0.15607295
180	0.716	0.020014712	0.021213041	-0.12475511	-0.73564896	0.038790865	0.070730929	-0.11416115	0.044001384	-0.15495077	-0.82450935	0.14167242	0.11214875	-0.1139436	0.062448913	-0.072116592	-0.7937252	0.14440677	0.027879516	-0.17898409	0.010568031	-0.11438091	-0.88021372	0.1515201	0.066640712	-0.12542228	0.43580481	-0.16418942	-0.53050558	0.40969523	0.12154199	-0.12203334	0.40935587	-0.04404902	-0.50298346	0.39917699	-0.0033124986	-0.26693007	0.79254645	-0.20439771	-0.41176512	0.79236723	0.16326922	-0.24401201	0.89089595	-0.11348488	-0.30517799	0.8733475	0.12331928	-0.47443948	0.89663023	-0.058491231	-0.34516743	1.3443008	-0.16927894	-0.35469188	1.3558496	0.15541944	-0.43575618	1.3785125	-0.01698672	-0.50439777	1.0443882	-0.22598272	-0.35528816	0.99823425	0.21530567	-0.45515721	0.81015509	-0.24717155	-0.14512757	0.87604804	0.15510135
181	0.72	0.020966017	0.020438845	-0.12475268	-0.73431989	0.038637407	0.070480759	-0.11339848	0.043949832	-0.15478223	-0.81811942	0.14587354	0.11158393	-0.1131348	0.062525691	-0.072005134	-0.78604641	0.14680636	0.027887635	-0.17857408	0.010824974	-0.11427514	-0.87238441	0.1573794	0.065260817	-0.11867869	0.4361369	-0.16431187	-0.52018101	0.4090829	0.12122915	-0.11599988	0.41036212	-0.044247883	-0.49316504	0.39822768	-0.0030808373	-0.26017482	0.79364318	-0.20572039	-0.40331124	0.79162146	0.16264785	-0.23721205	0.89189124	-0.11470334	-0.29736908	0.87317678	0.12187795	-0.46801864	0.89691629	-0.059104671	-0.33860287	1.344704	-0.1702908	-0.34786519	1.3564002	0.15438805	-0.42896723	1.3788837	-0.017911113	-0.49674878	1.0445214	-0.22670678	-0.35000895	0.99862842	0.21375306	-0.44907728	0.81017628	-0.24816807	-0.13964393	0.87656826	0.1541986
182	0.724	0.021681856	0.019794975	-0.12455778	-0.73294506	0.038450572	0.070234878	-0.11279	0.043868087	-0.15465233	-0.81119283	0.15002521	0.11093874	-0.11253428	0.062539602	-0.07189827	-0.77785483	0.1489749	0.027904533	-0.17817886	0.010933483	-0.11399857	-0.86394978	0.16332079	0.063756115	-0.1125372	0.43615826	-0.16453762	-0.50948385	0.40837783	0.12094901	-0.1101096	0.41118641	-0.044547593	-0.48267235	0.39697328	-0.0029073346	-0.25359656	0.79463185	-0.20707533	-0.39483358	0.79086864	0.16200821	-0.23036405	0.8929476	-0.11598531	-0.28967275	0.8731498	0.12038372	-0.46166584	0.89719789	-0.059728562	-0.33203434	1.3451625	-0.17129484	-0.34101408	1.3569746	0.15332985	-0.42220931	1.3792759	-0.018816342	-0.48905708	1.0446974	-0.22745479	-0.34480202	0.99907364	0.2122429	-0.44286535	0.81026643	-0.24918982	-0.13427007	0.87704949	0.15335344
183	0.728	0.022192618	0.019272814	-0.12435635	-0.73153767	0.038219931	0.069966568	-0.11237569	0.043803373	-0.15458649	-0.80371917	0.15413572	0.11024799	-0.11213684	0.062496573	-0.071818099	-0.76926671	0.15097035	0.027996425	-0.1778	0.010922923	-0.1136	-0.85502456	0.16930579	0.062159927	-0.1070441	0.43587473	-0.16487289	-0.49845348	0.40758502	0.12069697	-0.10441641	0.4117917	-0.044931705	-0.47142464	0.39535414	-0.0028480054	-0.24717419	0.79551764	-0.20845936	-0.38634587	0.79009532	0.16134353	-0.22349577	0.89405593	-0.11732052	-0.28178725	0.87323515	0.11862795	-0.45522014	0.89748373	-0.060390824	-0.32547052	1.3456723	-0.17228466	-0.33415594	1.3575522	0.15223177	-0.41548911	1.3796623	-0.019703319	-0.48132579	1.0449158	-0.22824583	-0.33966114	0.9995751	0.21078432	-0.43652596	0.81041817	-0.25022666	-0.12900899	0.8774717	0.15255746
184	0.732	0.022594443	0.018844838	-0.12426438	-0.73000578	0.038035407	0.069659357	-0.11209047	0.043737292	-0.15456346	-0.79571797	0.15822436	0.1095523	-0.11184643	0.062390983	-0.071750561	-0.76039885	0.15290425	0.028175359	-0.1774863	0.010878048	-0.11325948	-0.8456401	0.17529585	0.060607355	-0.10217196	0.43534374	-0.16531047	-0.48713485	0.40670287	0.12046624	-0.09900749	0.41215889	-0.045388688	-0.45940058	0.39334642	-0.0029462337	-0.24086898	0.79631916	-0.20986947	-0.37786318	0.78929211	0.16064591	-0.21668912	0.89520186	-0.11867984	-0.27371136	0.87335222	0.11662524	-0.44825825	0.89779901	-0.06111326	-0.31891207	1.346232	-0.17326314	-0.32730583	1.3581213	0.15108775	-0.40880463	1.3800324	-0.020571295	-0.47355642	1.0451715	-0.22910406	-0.33457355	1.0001339	0.20937874	-0.43005017	0.81061894	-0.25127876	-0.12385954	0.87782118	0.15181543
185	0.736	0.022958974	0.018488588	-0.12426983	-0.7281702	0.038098991	0.06932287	-0.1118484	0.043622648	-0.15454112	-0.78734015	0.16229636	0.10888958	-0.11155784	0.062211849	-0.071659346	-0.75131257	0.15487975	0.028395351	-0.17727191	0.010865016	-0.11309128	-0.83582574	0.1812491	0.059182232	-0.097844591	0.43464451	-0.16582915	-0.47556874	0.40572867	0.12025421	-0.093979132	0.41228783	-0.045916593	-0.44668136	0.39096675	-0.003190409	-0.23466003	0.79706366	-0.2112936	-0.36940204	0.78845831	0.15990964	-0.21001832	0.89637094	-0.12004218	-0.26562346	0.87341382	0.11456435	-0.44029187	0.89817586	-0.061843503	-0.31233875	1.3468414	-0.17423823	-0.32048526	1.358683	0.14991255	-0.4021449	1.3803966	-0.021421411	-0.465754	1.045458	-0.23001474	-0.32952379	1.000745	0.20802049	-0.42342386	0.81085999	-0.25235357	-0.11881242	0.87809612	0.15114122
